<svg version="1.1" id="logo" xmlns="http://www.w3.org/2000/svg" xmlns:xlink="http://www.w3.org/1999/xlink" x="0px" y="0px" viewBox="0 0 1455 1080" xml:space="preserve">
					<path d="M1443.8,875.6c-6.7,34.1-15.7,74.7-27,121.8c-11.3,47.1-36.9,70.6-76.8,70.6H948.3c-10.5-0.6-21.2-1.1-31.4-1.7c-35.4-2-54-21.1-56.1-56.8V81.4c0-39.9,19-60.9,56.9-63.1c38-2.2,77.4-4.4,118.2-6.9V0H620.7v11.5c40.4,2.4,79.5,4.7,117.5,6.9c38,2.2,56.9,23.2,56.9,63.1v330.3l-0.4,17.2h-555V81.8c0-39.9,19-60.9,56.9-63.1c38-2.2,77.4-4.4,118.2-6.8V0.3H-0.2v11.5c40.4,2.4,79.5,4.7,117.5,6.8c38,2.2,56.9,23.2,56.9,63.1v915.8c0,40.4-19,61.6-56.9,63.8c-38,2.2-77.1,4.2-117.5,6.1v11.5h415.1v-11.5c-40.8-1.9-80.2-4-118.2-6.1c-38-2.2-56.9-23.4-56.9-63.8V441.2h555v561.4c0,3.8-0.3,7.4-0.7,10.8c-4.4,30.4-23,46.7-55.8,48.5c-38,2.2-77.1,4.2-117.5,6.1v4.3l-0.4,0.2c0.1,0,0.3,0,0.4,0v7.1l803.6,1.4l31-205.4H1443.8z" fill="#000"/>
</svg>